<svg 
aria-hidden="true" 
style="position:absolute; width:0; height:0" 
xmlns="http://www.w3.org/2000/svg" 
>
  <defs>
    <symbol id="icon-client-a" viewBox="0 0 45 50" >
      <path d="M6 0L13.3076 6.91796H33.6924V26.2158L41 33.1338V0H6Z" />
      <path d="M0 6.62646V38.8137H34V26.0195L13.5231 6.63443L0 6.62646ZM27.5231 34.1055H5.38008V12.4579H6.9453V32.6397H27.5231V34.1055Z" />
      <path d="M9.79102 44.7837L10.6089 43.0991H11.2925L10.1011 45.3452V46.6538H9.48096V45.3452L8.28711 43.0991H8.97314L9.79102 44.7837ZM13.3018 45.8262H11.9248L11.6367 46.6538H10.9946L12.3374 43.0991H12.8916L14.2368 46.6538H13.5923L13.3018 45.8262ZM12.0981 45.3281H13.1284L12.6133 43.8535L12.0981 45.3281ZM15.7358 45.6943C15.7358 45.5299 15.7806 45.3794 15.8701 45.2427C15.9596 45.1043 16.1362 44.9408 16.3999 44.752C16.2616 44.5778 16.1647 44.4297 16.1094 44.3076C16.0557 44.1855 16.0288 44.0675 16.0288 43.9536C16.0288 43.6753 16.1134 43.4556 16.2827 43.2944C16.452 43.1317 16.6799 43.0503 16.9663 43.0503C17.2251 43.0503 17.4367 43.1268 17.6011 43.2798C17.7671 43.4312 17.8501 43.6191 17.8501 43.8438C17.8501 43.9919 17.8127 44.1286 17.7378 44.2539C17.6629 44.3776 17.54 44.5013 17.3691 44.625L17.1274 44.8008L17.8135 45.6113C17.9128 45.416 17.9624 45.1987 17.9624 44.9595H18.4775C18.4775 45.3973 18.375 45.7562 18.1699 46.0361L18.6924 46.6538H18.0039L17.8037 46.417C17.5498 46.6074 17.2471 46.7026 16.8955 46.7026C16.5439 46.7026 16.2624 46.6099 16.0508 46.4243C15.8408 46.2371 15.7358 45.9938 15.7358 45.6943ZM16.9126 46.229C17.1128 46.229 17.3 46.1623 17.4741 46.0288L16.6978 45.1133L16.6221 45.167C16.4268 45.3151 16.3291 45.4844 16.3291 45.6748C16.3291 45.8392 16.382 45.9727 16.4878 46.0752C16.5936 46.1777 16.7352 46.229 16.9126 46.229ZM16.5854 43.939C16.5854 44.0757 16.6693 44.2474 16.8369 44.4541L17.1079 44.2686L17.1836 44.2075C17.2845 44.118 17.335 44.0033 17.335 43.8633C17.335 43.7705 17.3 43.6916 17.23 43.6265C17.16 43.5597 17.0713 43.5264 16.9639 43.5264C16.8483 43.5264 16.7563 43.5654 16.688 43.6436C16.6196 43.7217 16.5854 43.8201 16.5854 43.939ZM23.043 45.4966C23.0072 45.8758 22.8672 46.172 22.623 46.3853C22.3789 46.5968 22.0542 46.7026 21.6489 46.7026C21.3657 46.7026 21.1159 46.6359 20.8994 46.5024C20.6846 46.3674 20.5186 46.1761 20.4014 45.9287C20.2842 45.6813 20.2231 45.394 20.2183 45.0669V44.7349C20.2183 44.3996 20.2777 44.1042 20.3965 43.8486C20.5153 43.5931 20.6854 43.3962 20.9067 43.2578C21.1297 43.1195 21.3869 43.0503 21.6782 43.0503C22.0705 43.0503 22.3862 43.1569 22.6255 43.3701C22.8647 43.5833 23.0039 43.8844 23.043 44.2734H22.4277C22.3984 44.0179 22.3236 43.834 22.2031 43.7217C22.0843 43.6077 21.9093 43.5508 21.6782 43.5508C21.4097 43.5508 21.203 43.6493 21.0581 43.8462C20.9149 44.0415 20.8416 44.3288 20.8384 44.708V45.0229C20.8384 45.4071 20.9067 45.7 21.0435 45.9019C21.1818 46.1037 21.3836 46.2046 21.6489 46.2046C21.8914 46.2046 22.0737 46.1501 22.1958 46.041C22.3179 45.932 22.3952 45.7505 22.4277 45.4966H23.043ZM26.4341 44.9692C26.4341 45.3175 26.3739 45.6235 26.2534 45.8872C26.133 46.1493 25.9604 46.3511 25.7358 46.4927C25.5129 46.6326 25.2557 46.7026 24.9644 46.7026C24.6763 46.7026 24.4191 46.6326 24.1929 46.4927C23.9683 46.3511 23.7941 46.1501 23.6704 45.8896C23.5483 45.6292 23.4865 45.3289 23.4849 44.9888V44.7886C23.4849 44.4419 23.5459 44.1359 23.668 43.8706C23.7917 43.6053 23.965 43.4027 24.188 43.2627C24.4126 43.1211 24.6698 43.0503 24.9595 43.0503C25.2492 43.0503 25.5055 43.1203 25.7285 43.2603C25.9531 43.3986 26.1265 43.5988 26.2485 43.8608C26.3706 44.1213 26.4325 44.4248 26.4341 44.7715V44.9692ZM25.8164 44.7837C25.8164 44.3898 25.7415 44.0879 25.5918 43.8779C25.4437 43.668 25.2329 43.563 24.9595 43.563C24.6925 43.563 24.4834 43.668 24.332 43.8779C24.1823 44.0863 24.1058 44.3817 24.1025 44.7642V44.9692C24.1025 45.3599 24.1782 45.6618 24.3296 45.875C24.4826 46.0882 24.6942 46.1948 24.9644 46.1948C25.2378 46.1948 25.4478 46.0907 25.5942 45.8823C25.7424 45.674 25.8164 45.3696 25.8164 44.9692V44.7837Z" />
    </symbol>
   
    <symbol id="icon-client-b" viewBox="0 0 25 32">
      <path d="M10.447 1.806h0.084c0.156 0 0.324 0.016 0.49 0.030 0.734 0.052 1.463 0.162 2.179 0.329v-1.762c-0.738-0.185-1.491-0.305-2.25-0.358-0.288-0.022-0.595-0.036-0.909-0.044h-0.263c-1.523 0.006-3.039 0.201-4.515 0.582-1.68 0.419-3.293 1.075-4.79 1.948v17.475c1.442-0.783 2.976-1.381 4.566-1.779 1.256-0.32 2.539-0.517 3.833-0.588h0.051c0.216-0.011 0.433-0.017 0.655-0.019v-1.79c-1.681 0.022-3.353 0.244-4.982 0.662-0.602 0.157-1.185 0.325-1.731 0.513l-0.623 0.211v-13.625l0.266-0.128c2.032-0.963 4.229-1.524 6.471-1.651 0.019-0.001 0.037-0.001 0.056 0 0.248-0.013 0.497-0.019 0.741-0.019h0.28c0.129 0.003 0.258 0.006 0.388 0.014z"></path>
      <path d="M14.837 3.651c-0.409 0-0.814-0.014-1.205-0.044-0.467-0.034-0.947-0.091-1.401-0.167-0.277-0.047-0.55-0.103-0.814-0.164v17.275c1.12 0.277 2.271 0.413 3.425 0.404 1.523-0.006 3.039-0.201 4.515-0.581 1.68-0.42 3.294-1.075 4.792-1.948v-17.163c-1.442 0.783-2.975 1.381-4.564 1.781-1.551 0.398-3.145 0.603-4.747 0.609zM21.745 3.95l0.623-0.21v13.63l-0.266 0.128c-1.021 0.486-2.087 0.869-3.184 1.144-1.331 0.344-2.7 0.522-4.074 0.527-0.411 0-0.819-0.017-1.214-0.052l-0.427-0.038v-14.017l0.497 0.033c0.361 0.023 0.735 0.034 1.141 0.034 1.745-0.006 3.483-0.229 5.173-0.663 0.581-0.153 1.158-0.325 1.731-0.518z"></path>
      <path d="M1.684 25.977c-0.090-0.093-0.197-0.166-0.317-0.214s-0.247-0.071-0.376-0.066c-0.137-0.002-0.273 0.024-0.4 0.075-0.117 0.046-0.222 0.116-0.311 0.205s-0.156 0.196-0.201 0.313c-0.049 0.123-0.073 0.254-0.072 0.387v2.335c-0.006 0.165 0.026 0.328 0.092 0.479 0.055 0.12 0.135 0.226 0.233 0.313 0.093 0.079 0.203 0.135 0.321 0.166 0.114 0.032 0.231 0.048 0.349 0.049 0.13 0.001 0.259-0.027 0.377-0.081 0.117-0.051 0.222-0.124 0.311-0.216 0.087-0.091 0.156-0.197 0.204-0.313 0.050-0.118 0.075-0.244 0.075-0.372v-0.261h-0.61v0.208c0.002 0.071-0.010 0.142-0.036 0.208-0.020 0.050-0.050 0.095-0.089 0.131-0.038 0.031-0.081 0.053-0.128 0.067-0.041 0.014-0.084 0.021-0.128 0.022-0.054 0.006-0.11-0.002-0.16-0.024s-0.094-0.057-0.126-0.101c-0.058-0.094-0.086-0.203-0.081-0.313v-2.177c-0.004-0.121 0.022-0.241 0.075-0.349 0.032-0.049 0.077-0.089 0.129-0.113s0.112-0.034 0.17-0.027c0.053-0.002 0.105 0.009 0.152 0.032s0.089 0.057 0.12 0.099c0.068 0.090 0.104 0.2 0.101 0.313v0.202h0.604v-0.238c0.001-0.14-0.024-0.278-0.075-0.408-0.045-0.122-0.114-0.234-0.204-0.329z"></path>
      <path d="M5.31 25.95c-0.195-0.164-0.44-0.255-0.694-0.257-0.124 0.001-0.248 0.023-0.364 0.066-0.119 0.042-0.228 0.107-0.322 0.191-0.101 0.091-0.182 0.202-0.237 0.327-0.061 0.143-0.092 0.297-0.089 0.452v2.239c-0.004 0.158 0.026 0.314 0.089 0.459 0.055 0.12 0.136 0.227 0.237 0.313 0.093 0.087 0.203 0.154 0.322 0.197 0.117 0.043 0.24 0.065 0.364 0.066s0.248-0.023 0.364-0.066c0.121-0.044 0.233-0.111 0.33-0.197 0.097-0.087 0.176-0.194 0.23-0.313 0.063-0.144 0.093-0.301 0.089-0.459v-2.239c0.003-0.155-0.027-0.31-0.089-0.452-0.054-0.123-0.133-0.235-0.23-0.327zM5.025 28.969c0.005 0.060-0.003 0.12-0.024 0.176s-0.054 0.107-0.097 0.148c-0.081 0.068-0.182 0.105-0.287 0.105s-0.207-0.037-0.287-0.105c-0.043-0.041-0.076-0.092-0.097-0.148s-0.029-0.116-0.024-0.176v-2.239c-0.005-0.060 0.003-0.12 0.024-0.176s0.054-0.107 0.097-0.148c0.081-0.068 0.182-0.105 0.287-0.105s0.207 0.037 0.287 0.105c0.043 0.041 0.076 0.092 0.097 0.148s0.029 0.116 0.024 0.176v2.239z"></path>
      <path d="M10.072 29.969v-4.239h-0.587l-0.771 2.244h-0.011l-0.777-2.244h-0.581v4.239h0.606v-2.579h0.011l0.593 1.823h0.302l0.598-1.823h0.011v2.579h0.606z"></path>
      <path d="M13.513 26.027c-0.093-0.105-0.211-0.184-0.342-0.232-0.142-0.046-0.29-0.068-0.439-0.066h-0.9v4.239h0.604v-1.656h0.311c0.188 0.009 0.376-0.031 0.545-0.116 0.137-0.076 0.252-0.188 0.332-0.324 0.070-0.113 0.117-0.238 0.139-0.369 0.024-0.16 0.035-0.321 0.033-0.482 0.006-0.204-0.014-0.407-0.059-0.606-0.040-0.147-0.117-0.281-0.223-0.39zM13.201 27.32c-0.003 0.077-0.022 0.152-0.056 0.221-0.035 0.065-0.089 0.117-0.156 0.149-0.089 0.040-0.187 0.058-0.285 0.053h-0.276v-1.441h0.311c0.094-0.005 0.187 0.014 0.272 0.053 0.062 0.036 0.112 0.091 0.142 0.156 0.033 0.075 0.051 0.155 0.053 0.236 0 0.089 0 0.183 0 0.282s0.006 0.2 0 0.291h-0.006z"></path>
      <path d="M16.374 25.73h-0.495l-0.934 4.239h0.604l0.177-0.911h0.823l0.177 0.911h0.604l-0.957-4.239zM15.817 28.481l0.297-1.537h0.011l0.296 1.537h-0.604z"></path>
      <path d="M20.277 28.283h-0.011l-0.912-2.554h-0.581v4.239h0.604v-2.549h0.012l0.923 2.549h0.568v-4.239h-0.604v2.554z"></path>
      <path d="M23.968 25.73l-0.486 1.685h-0.012l-0.486-1.685h-0.64l0.83 2.447v1.792h0.604v-1.792l0.83-2.447h-0.64z"></path>
      <path d="M0 31.166h0.291v0.817h0.198v-0.817h0.29v-0.167h-0.778v0.167z"></path>
      <path d="M2.447 30.999l-0.381 0.984h0.21l0.081-0.224h0.392l0.084 0.224h0.215l-0.391-0.984h-0.21zM2.416 31.593l0.134-0.365 0.134 0.365h-0.268z"></path>
      <path d="M4.866 31.62h0.227v0.127c-0.066 0.053-0.149 0.082-0.234 0.083-0.040 0.002-0.079-0.005-0.116-0.021s-0.068-0.041-0.093-0.072c-0.052-0.075-0.078-0.165-0.073-0.257 0-0.219 0.095-0.329 0.283-0.329 0.050-0.005 0.099 0.008 0.14 0.037s0.070 0.071 0.082 0.12l0.195-0.038c-0.042-0.192-0.181-0.289-0.417-0.289-0.127-0.003-0.25 0.042-0.344 0.127-0.050 0.049-0.088 0.108-0.112 0.174s-0.034 0.135-0.029 0.205c-0.006 0.135 0.039 0.267 0.126 0.369 0.048 0.050 0.107 0.088 0.171 0.113s0.134 0.035 0.203 0.031c0.154 0.004 0.304-0.052 0.417-0.157v-0.388h-0.427v0.166z"></path>
      <path d="M7.337 30.999h-0.199v0.984h0.69v-0.167h-0.49v-0.817z"></path>
      <path d="M9.426 30.999h-0.199v0.984h0.199v-0.984z"></path>
      <path d="M11.469 31.656l-0.403-0.657h-0.193v0.984h0.185v-0.643l0.395 0.643h0.198v-0.984h-0.182v0.657z"></path>
      <path d="M13.315 31.549h0.49v-0.167h-0.49v-0.216h0.528v-0.167h-0.727v0.984h0.747v-0.167h-0.548v-0.266z"></path>
      <path d="M17.792 31.387h-0.388v-0.388h-0.198v0.984h0.198v-0.43h0.388v0.43h0.198v-0.984h-0.198v0.388z"></path>
      <path d="M19.649 31.549h0.492v-0.167h-0.492v-0.216h0.529v-0.167h-0.727v0.984h0.746v-0.167h-0.548v-0.266z"></path>
      <path d="M22.168 31.549c0.171-0.027 0.258-0.117 0.258-0.274 0.005-0.042-0.001-0.084-0.018-0.123s-0.044-0.072-0.078-0.096c-0.089-0.045-0.189-0.065-0.288-0.058h-0.417v0.984h0.198v-0.412h0.039c0.042-0.003 0.084 0.005 0.123 0.022 0.029 0.018 0.053 0.043 0.070 0.072l0.215 0.313h0.237l-0.12-0.192c-0.053-0.095-0.128-0.176-0.218-0.236zM21.969 31.413h-0.146v-0.247h0.156c0.068-0.005 0.136 0.002 0.201 0.023 0.014 0.013 0.026 0.029 0.033 0.046s0.011 0.037 0.010 0.056c-0.001 0.019-0.006 0.038-0.015 0.055s-0.022 0.032-0.037 0.043c-0.065 0.020-0.133 0.028-0.201 0.023z"></path>
      <path d="M24.067 31.549h0.49v-0.167h-0.49v-0.216h0.529v-0.167h-0.729v0.984h0.747v-0.167h-0.548v-0.266z"></path>
    </symbol>
    
    <symbol id="icon-client-c" viewBox="0 0 41 43">
      <path d="M12.68 19.564l.008.002.007.004.038.038a.305.305 0 01-.106.073.402.402 0 01-.15.026.377.377 0 01-.141-.024.304.304 0 01-.175-.175.375.375 0 01.002-.272.315.315 0 01.186-.175.398.398 0 01.145-.024.365.365 0 01.135.022.383.383 0 01.101.061l-.031.041-.008.007a.025.025 0 01-.013.003.033.033 0 01-.014-.004l-.017-.011-.024-.014a.3.3 0 00-.234-.01.247.247 0 00-.082.051.232.232 0 00-.053.082.286.286 0 00-.019.108.291.291 0 00.019.109.225.225 0 00.13.131c.03.011.064.018.097.017a.544.544 0 00.057-.003.204.204 0 00.087-.029.25.25 0 00.037-.027.029.029 0 01.018-.007zM13.767 19.372a.348.348 0 01-.025.135c-.015.039-.039.075-.071.105s-.069.053-.111.069a.438.438 0 01-.286 0c-.042-.016-.079-.039-.111-.069s-.056-.067-.071-.106a.37.37 0 010-.27.314.314 0 01.071-.106.304.304 0 01.111-.066.425.425 0 01.286 0 .31.31 0 01.182.174c.017.043.026.09.025.136zm-.099 0a.29.29 0 00-.018-.109.22.22 0 00-.129-.132.31.31 0 00-.208 0 .22.22 0 00-.13.132.336.336 0 000 .217.223.223 0 00.13.132.322.322 0 00.208 0 .22.22 0 00.129-.132.29.29 0 00.018-.109zM14.508 19.486l.01.024.011-.024.012-.024.24-.403c.005-.007.009-.011.014-.013a.044.044 0 01.02-.002h.071v.656h-.084v-.482-.02-.023l-.242.409a.04.04 0 01-.035.021h-.014c-.007 0-.015-.002-.021-.005s-.011-.009-.014-.015l-.249-.412v.526h-.081v-.655h.071c.007 0 .013 0 .02.002s.01.007.013.013l.246.404a.1.1 0 01.012.023zM15.412 19.454v.246h-.094v-.655h.21a.417.417 0 01.117.014.23.23 0 01.083.041c.021.018.037.04.047.064a.221.221 0 01-.001.168.181.181 0 01-.051.066.22.22 0 01-.083.043.362.362 0 01-.113.015l-.114-.002zm0-.071h.114a.257.257 0 00.073-.01.18.18 0 00.053-.028.126.126 0 00.043-.098c.001-.018-.002-.036-.009-.053s-.019-.032-.033-.045a.195.195 0 00-.127-.035h-.114v.27zM16.677 19.7h-.074c-.007 0-.015-.002-.021-.006s-.01-.009-.012-.015l-.064-.158h-.321l-.066.158c-.002.006-.006.011-.012.015s-.014.007-.021.006h-.074l.282-.656h.098l.286.656zm-.466-.243h.265l-.112-.267a.348.348 0 01-.021-.062l-.011.034-.01.028-.111.267zM17.083 19.047a.04.04 0 01.014.012l.412.494v-.023V19.043h.084v.656h-.047c-.007 0-.013-.001-.019-.004s-.011-.007-.015-.012l-.411-.494v.511h-.084v-.656h.05c.006 0 .012.001.017.003zM18.286 19.439v.261h-.094v-.261l-.26-.395h.084c.007 0 .014.002.02.006s.009.009.013.015l.163.255.017.03c.005.009.008.019.012.028l.012-.028.016-.03.16-.257.012-.014a.032.032 0 01.02-.007h.085l-.261.397zM14.461 17.943c.041.005.082.009.124.012.635-.262 1.171-.691 1.544-1.233s.563-1.173.548-1.815l-.699-.646c.142.683.076 1.389-.192 2.039s-.726 1.219-1.324 1.642z"/>
      <path d="M14.212 17.913l.019.003c.639-.422 1.126-1.011 1.398-1.691s.317-1.42.129-2.124l-.996-.919c.403.756.565 1.602.468 2.439s-.45 1.632-1.018 2.292zM17.59 15.665a3.315 3.315 0 01-1.172 1.813 3.683 3.683 0 01-.557.369c.482-.131.925-.362 1.295-.676s.657-.702.838-1.134l-.404-.373z"/>
      <path d="M17.432 15.562l-.575-.531c-.011.605-.197 1.197-.54 1.713s-.829.939-1.408 1.223h.003c.129 0 .258-.007.386-.021.541-.204 1.019-.528 1.392-.944s.627-.911.742-1.44zM14.295 12.794l-.686-.634c-.613.219-1.141.603-1.514 1.104s-.573 1.093-.575 1.7c.002.671.247 1.322.695 1.85s1.074.903 1.779 1.066c.629-.708.998-1.582 1.052-2.497s-.209-1.821-.751-2.588zM19.017 15.464c-.003-.796-.346-1.558-.956-2.121s-1.436-.88-2.298-.882c-.398 0-.793.068-1.165.2l4.202 3.878c.144-.343.217-.707.217-1.075z"/>
    </symbol>
    <symbol id="icon-client-d" viewBox="0 0 80 42">
      <path d="M10.929 14.616h-.001c-.426 0-.771.317-.771.707 0 .391.345.707.771.707h.001c.426 0 .771-.317.771-.707 0-.391-.345-.707-.771-.707zM16.62 14.39c-.001-.542-.237-1.062-.655-1.446s-.985-.6-1.576-.601c-.592.001-1.159.217-1.577.601s-.654.904-.655 1.446v2.991s4.463-.456 4.464-2.991zM8.594 18.363c.001.377.165.739.456 1.006s.685.417 1.097.419c.411-.001.806-.151 1.097-.418s.455-.628.456-1.006v-2.082s-3.106.317-3.106 2.081zm1.553.373c-.08 0-.159-.022-.226-.063s-.119-.099-.15-.167-.039-.143-.023-.215.054-.139.111-.191c.057-.052.129-.088.208-.102s.161-.007.235.021c.074.028.138.076.182.137s.069.133.069.207c0 .049-.01.098-.031.143s-.05.087-.088.121a.416.416 0 01-.288.11v-.001zM13.301 18.529h-.309v.319h-.161v-.78h.508v.13h-.347v.201h.309v.13zm.773-.054c0 .077-.014.144-.041.202a.306.306 0 01-.291.181c-.066 0-.122-.016-.173-.047s-.09-.075-.118-.133a.451.451 0 01-.042-.199v-.039c0-.077.014-.144.041-.203s.067-.103.117-.134c.051-.031.109-.047.174-.047s.123.016.173.047c.051.031.09.076.117.134s.042.126.042.202v.035zm-.163-.035c0-.082-.015-.144-.044-.186s-.071-.064-.125-.064c-.054 0-.096.021-.125.063s-.044.103-.044.184v.038c0 .08.015.141.044.185s.071.066.126.066c.054 0 .095-.021.124-.063s.044-.104.044-.185v-.038zm.684.203c0-.03-.011-.054-.032-.07s-.06-.034-.116-.051a.738.738 0 01-.132-.054c-.089-.048-.133-.112-.133-.193 0-.042.012-.08.035-.113s.058-.059.102-.078c.045-.019.095-.028.15-.028s.105.01.149.031a.225.225 0 01.137.21h-.161c0-.036-.011-.063-.034-.083s-.054-.03-.095-.03c-.039 0-.07.008-.092.025s-.033.038-.033.065c0 .025.013.047.038.064s.063.033.113.048c.091.027.158.062.2.102s.063.091.063.152c0 .067-.026.121-.077.159s-.12.057-.206.057c-.06 0-.115-.011-.164-.033s-.087-.052-.113-.091a.229.229 0 01-.039-.133h.161c0 .086.051.129.154.129.038 0 .068-.008.089-.023s.032-.038.032-.065zm.858-.445h-.239v.65h-.161v-.65h-.236v-.13h.635v.13zm.561.312h-.309v.209h.362v.129h-.523v-.78h.522v.13h-.361v.186h.309v.126zm.437.052h-.128v.286h-.161v-.78h.29c.092 0 .163.021.213.062s.075.099.075.174c0 .053-.012.098-.035.133s-.058.064-.104.085l.169.319v.008h-.172l-.146-.286zm-.128-.13h.13c.04 0 .072-.01.094-.031s.033-.049.033-.085c0-.037-.011-.066-.032-.087s-.053-.032-.096-.032h-.129v.234zm.973.141v.275h-.161v-.78h.304c.059 0 .11.011.154.032s.079.052.103.092a.251.251 0 01.036.134c0 .076-.026.137-.079.181s-.124.066-.217.066h-.141zm0-.13h.144c.043 0 .075-.01.097-.03s.034-.049.034-.086c0-.038-.011-.069-.034-.093s-.054-.036-.093-.036h-.147v.245zm1.017.067h-.309v.209h.362v.129h-.523v-.78h.522v.13h-.361v.186h.309v.126zm.746-.312h-.239v.65h-.161v-.65h-.236v-.13h.635v.13zm.561.312h-.308v.209h.362v.129h-.523v-.78h.522v.13h-.361v.186h.308v.126zm.437.052h-.128v.286h-.161v-.78h.29c.092 0 .163.021.213.062s.075.099.075.174c0 .053-.012.098-.035.133s-.058.064-.104.085l.169.319v.008h-.172l-.146-.286zm-.128-.13h.13c.04 0 .072-.01.094-.031s.033-.049.033-.085c0-.037-.011-.066-.032-.087s-.053-.032-.096-.032h-.129v.234zm.944.211c0-.03-.011-.054-.032-.07s-.06-.034-.116-.051a.738.738 0 01-.132-.054c-.088-.048-.133-.112-.133-.193 0-.042.012-.08.035-.113s.058-.059.102-.078c.045-.019.095-.028.15-.028s.105.01.149.031a.225.225 0 01.137.21h-.161c0-.036-.011-.063-.034-.083s-.054-.03-.095-.03c-.039 0-.07.008-.092.025s-.033.038-.033.065c0 .025.013.047.038.064s.063.033.113.048c.091.027.158.062.2.102s.063.091.063.152c0 .067-.025.121-.076.159s-.12.057-.206.057c-.06 0-.115-.011-.164-.033s-.087-.052-.113-.091a.229.229 0 01-.039-.133h.161c0 .086.051.129.154.129.038 0 .068-.008.089-.023s.032-.038.032-.065z"/>
    </symbol>
    <symbol id="icon-client-e" viewBox="0 0 59 47">
      <path d="M11.426 18.977a.288.288 0 01.063.185.297.297 0 01-.098.233.424.424 0 01-.285.085h-.501v-1.171h.491a.42.42 0 01.272.078c.032.027.057.06.073.098s.024.079.022.121a.269.269 0 01-.057.179.267.267 0 01-.149.092.287.287 0 01.169.1zm-.587-.177h.21a.192.192 0 00.133-.039.135.135 0 00.045-.115c.001-.021-.002-.042-.009-.062s-.02-.038-.035-.052a.204.204 0 00-.137-.039h-.206v.307zm.363.449a.146.146 0 00.05-.119c.001-.023-.003-.045-.011-.066s-.022-.039-.039-.054a.208.208 0 00-.142-.042h-.22v.322h.223c.05.003.1-.011.141-.041zM12.429 19.48l-.273-.458h-.103v.458h-.235v-1.171h.444a.434.434 0 01.309.1.375.375 0 01.033.484.363.363 0 01-.212.119l.291.468h-.255zm-.375-.617h.192c.133 0 .2-.059.2-.177a.184.184 0 00-.049-.132.206.206 0 00-.151-.047h-.194l.002.356zM13.713 19.244h-.468l-.083.236h-.246l.43-1.158h.266l.428 1.158h-.246l-.081-.236zm-.063-.177l-.171-.494-.171.494h.342zM15.319 19.48h-.233l-.523-.796v.796h-.232v-1.171h.232l.523.801v-.801h.233v1.171zM16.649 19.2a.513.513 0 01-.211.207.689.689 0 01-.328.074h-.415V18.31h.415a.705.705 0 01.328.072.494.494 0 01.211.204.683.683 0 010 .614zm-.267-.028a.428.428 0 000-.558.409.409 0 00-.292-.1h-.162v.758h.162a.402.402 0 00.292-.1zM13.858 11.794s3.008 1.14 2.944 2.79v2.791s-3.006-1.141-2.943-2.791l-.001-2.79zM19.483 16.722a4.1 4.1 0 011.911-.707v-.874a3.918 3.918 0 00-1.911 1.581z"/>
      <path d="M19.142 16.985a4.09 4.09 0 012.253-2.027v-2.517s-4.284 1.624-4.194 3.974v3.974s.191-.073.491-.209c0-.127 0-.255.014-.384a4.132 4.132 0 011.436-2.81z"/>
      <path d="M18.734 18.462c.023-.276.073-.548.15-.814a3.848 3.848 0 00-.907 2.4c.243-.117.526-.264.824-.436a4.152 4.152 0 01-.067-1.151zM18.904 18.476c-.029.348-.011.698.053 1.042 1.17-.703 2.486-1.79 2.435-3.103v-.114a3.834 3.834 0 00-2.227 1.045 3.96 3.96 0 00-.261 1.131z"/>
    </symbol>
    <symbol id="icon-client-f" viewBox="0 0 89 46">
      <path d="M16.044 15.76a.564.564 0 01-.104-.364v-.528c0-.162.035-.285.104-.369s.188-.126.356-.126c.158 0 .271.036.337.107a.457.457 0 01.1.316v.124h-.283v-.126a.726.726 0 00-.008-.123.119.119 0 00-.04-.073.155.155 0 00-.103-.028.165.165 0 00-.108.03.143.143 0 00-.047.081.638.638 0 00-.011.131v.641a.351.351 0 00.036.18.139.139 0 00.129.054.148.148 0 00.1-.029.129.129 0 00.042-.078.69.69 0 00.009-.128v-.13h.283v.119a.5.5 0 01-.098.332c-.065.078-.176.118-.339.118s-.286-.042-.356-.129zM17.223 15.766c-.072-.082-.107-.202-.107-.361v-.556c0-.157.036-.276.107-.356s.191-.121.359-.12c.166 0 .285.04.357.12s.108.199.108.356v.556c0 .157-.036.277-.109.36s-.191.124-.356.124c-.165 0-.287-.042-.359-.124zm.49-.134a.327.327 0 00.034-.165v-.681a.322.322 0 00-.033-.161c-.014-.019-.034-.035-.058-.044s-.049-.013-.075-.009c-.025-.003-.051 0-.075.01s-.044.025-.058.044a.312.312 0 00-.034.161v.684a.317.317 0 00.034.165.183.183 0 00.133.055c.025 0 .05-.005.073-.014s.043-.023.06-.041v-.003zM18.386 14.388h.305l.229 1.025.234-1.026h.297l.03 1.48h-.219l-.023-1.029-.226 1.029h-.176l-.234-1.033-.022 1.033h-.221l.028-1.48zM19.823 14.388h.475c.274 0 .41.14.41.42 0 .268-.144.402-.432.402h-.162v.658h-.293l.002-1.48zm.405.633a.209.209 0 00.161-.047.25.25 0 00.042-.167.505.505 0 00-.014-.134c-.004-.015-.012-.029-.022-.041s-.023-.022-.037-.03a.294.294 0 00-.131-.024h-.114v.442h.114zM21.13 14.388h.315l.323 1.48h-.273l-.064-.341h-.281l-.066.341h-.277l.323-1.48zm.269.968l-.11-.621-.11.621h.219zM22.029 14.388h.205l.393.844v-.844h.243v1.48h-.195l-.395-.881v.881h-.251l.001-1.48zM23.439 15.304l-.327-.914h.275l.199.587.187-.587h.269l-.322.914v.564h-.281v-.564zM16.496 16.516v.077h-.239v.601h-.1v-.601h-.24v-.077h.58zM17.246 17.195h-.077c-.008 0-.016-.002-.022-.006s-.01-.009-.013-.016l-.069-.161h-.332l-.069.161a.042.042 0 01-.011.018.029.029 0 01-.022.006h-.077l.293-.679h.102l.297.676zm-.485-.252h.277l-.117-.276a.483.483 0 01-.022-.064l-.011.036-.011.029-.116.276zM17.751 17.128a.505.505 0 00.055 0c.016-.002.032-.004.047-.008l.042-.012c.014-.005.026-.011.039-.017v-.153h-.117l-.009-.001a.016.016 0 01-.007-.004l-.004-.006c-.001-.003-.002-.004-.001-.007v-.052h.227v.26a.419.419 0 01-.124.055.588.588 0 01-.159.018.434.434 0 01-.148-.025.326.326 0 01-.22-.32.322.322 0 01.219-.32.542.542 0 01.308-.002.347.347 0 01.11.062l-.028.042c-.002.004-.006.007-.009.009s-.009.003-.013.004a.037.037 0 01-.018-.005l-.029-.016a.276.276 0 00-.093-.033.462.462 0 00-.074-.006.331.331 0 00-.113.019.233.233 0 00-.141.138.337.337 0 000 .226.237.237 0 00.059.085.246.246 0 00.086.054.303.303 0 00.116.013zM18.685 17.117h.32v.077h-.418v-.679h.1l-.002.601zM19.338 17.195h-.1v-.679h.1v.679zM19.711 16.519a.044.044 0 01.015.012l.428.512v-.024-.506h.087v.682h-.05c-.008.001-.015-.001-.022-.004s-.011-.008-.016-.013l-.428-.511v.528h-.084v-.679h.052c.006 0 .011.001.016.003zM20.98 16.516v.075h-.355v.224h.288v.072h-.288v.232h.355v.075h-.458v-.677h.458zM10.478 12.323l4.45 1.159v4.061l-4.45-1.158v-4.061zm-.285-.346v4.605l5.02 1.308v-4.604l-5.02-1.308z"/>
      <path d="M12.883 20.027l-5.021-1.309v-4.604l5.021 1.308v4.605zM10.276 12.271l4.392 1.144-1.868 1.714-4.392-1.145 1.868-1.713zm-.083-.294l-2.33 2.137 5.021 1.308 2.329-2.137-5.02-1.308zM13.166 19.768l2.047-1.878-2.047-.534v2.412z"/>
    </symbol>
    <symbol id="icon-features-antenna" viewBox="0 0 32 32">
      <path fill="var(--color2, #212121)" d="M30.773 22.098l-8.443-8.505.937-4.615c.242.094.499.144.758.146h.006a2.159 2.159 0 10-2.008-1.435l-4.96.605L8.972.161a.534.534 0 00-.377-.16.532.532 0 00-.373.155L6.709 1.66a.534.534 0 000 .754l.814.826a14.943 14.943 0 002.519 17.663.513.513 0 00.146.098c-.034.18-.051.364-.052.547v6.187h-6.4a2.67 2.67 0 00-2.667 2.667v1.067c0 .295.239.533.533.533h24.533a.533.533 0 00.533-.533v-1.067a2.67 2.67 0 00-2.667-2.667h-6.4v-2.742a15.09 15.09 0 003.049.32 14.854 14.854 0 007.04-1.783l.818.823a.534.534 0 00.377.16.532.532 0 00.373-.155l1.513-1.504a.534.534 0 000-.754zM23.28 6.233a1.066 1.066 0 11.752 1.822h-.003a1.067 1.067 0 01-.747-1.823h-.002zm-1.256 3.505l-.598 2.946-1.175-1.182 1.774-1.763zm-.605-.902l-1.92 1.909-1.485-1.493 3.405-.415zM24.004 28.8a1.6 1.6 0 011.6 1.6v.533H2.137V30.4a1.6 1.6 0 011.6-1.6h20.267zm-7.467-2.133v1.067h-5.333v-1.067h5.333zM11.204 25.6v-4.053c0-1.294 1.196-2.347 2.667-2.347s2.667 1.053 2.667 2.347V25.6h-5.333zm6.4-1.696v-2.357c0-1.882-1.675-3.413-3.733-3.413a3.8 3.8 0 00-3.281 1.786A13.87 13.87 0 018.311 4.033l18.602 18.708a13.818 13.818 0 01-9.309 1.163zm11.289-.684L7.836 2.039l.755-.752 7.935 7.98c.004 0 .006.007.01.01l13.115 13.191-.757.752z"/>
      <path fill="var(--color3, #2196f3)" d="M13.876 20.267h-.005a1.6 1.6 0 10-.004 3.2h.005a1.6 1.6 0 10.004-3.2zm.373 1.978a.534.534 0 01-.752-.756.534.534 0 01.373-.155.532.532 0 01.373.911h.005z"/>
    </symbol>
    <symbol id="icon-features-astronaut" viewBox="0 0 32 32">
      <path fill="var(--color3, #2196f3)" d="M31.974 4.524a.534.534 0 00-.43-.363l-1.91-.278-.855-1.731c-.179-.365-.777-.365-.956 0l-.855 1.731-1.91.278a.535.535 0 00-.296.91l1.383 1.348-.326 1.903c-.034.2.048.402.212.522a.53.53 0 00.562.04l1.709-.899 1.709.899a.536.536 0 00.775-.563l-.326-1.903 1.383-1.348a.536.536 0 00.135-.547zm-2.463 1.327a.534.534 0 00-.153.472l.191 1.114-1-.526a.533.533 0 00-.498 0l-1.001.526.191-1.114a.534.534 0 00-.153-.472l-.81-.789 1.119-.163a.532.532 0 00.402-.292l.5-1.013.5 1.013a.535.535 0 00.402.292l1.119.163-.809.789zM26.133 20.522h-1.067v1.067h1.067v-1.067zM26.133 22.656h-1.067v1.067h1.067v-1.067zM27.2 21.589h-1.067v1.067H27.2v-1.067zM25.067 21.589H24v1.067h1.067v-1.067zM22.4 26.389h-1.067v1.067H22.4v-1.067zM22.4 28.522h-1.067v1.067H22.4v-1.067zM23.467 27.456H22.4v1.067h1.067v-1.067zM21.333 27.456h-1.067v1.067h1.067v-1.067zM16 24.256h-1.067v1.067H16v-1.067zM16 26.389h-1.067v1.067H16v-1.067zM17.067 25.322H16v1.067h1.067v-1.067zM14.933 25.322h-1.067v1.067h1.067v-1.067zM5.866 6.122H4.799v1.067h1.067V6.122zM5.866 8.255H4.799v1.067h1.067V8.255z"/>
      <path fill="var(--color3, #2196f3)" d="M6.933 7.189H5.866v1.067h1.067V7.189zM4.8 7.189H3.733v1.067H4.8V7.189z"/>
      <path fill="var(--color2, #212121)" d="M24.715 14.159a1.775 1.775 0 00-1.188-.705 1.778 1.778 0 00-1.34.352l-1.252.96-1.898 1.417-1.358-.541c2.421-1.086 4.114-3.508 4.114-6.32 0-3.823-3.123-6.933-6.961-6.933s-6.961 3.11-6.961 6.933a6.86 6.86 0 001.12 3.758l-2.764-.024h-.005c-.009 0-.015.004-.023.005a.515.515 0 00-.155.031l-.038.013c-.006.003-.013.003-.019.006l-3.233 1.596-.001.001-1.893.911a.397.397 0 00-.063.035 1.779 1.779 0 00-.598 2.295c.22.429.595.745 1.056.889a1.776 1.776 0 001.378-.128l1.388-.738 2.264-1.169 1.357-.008L2.2 22.211l-.002.001-1.339 1.333c-.316.315-.49.732-.49 1.178s.174.863.49 1.179c.325.323.752.485 1.179.485s.854-.162 1.18-.485l1.314-1.309 1.741-1.3.901.897-1.762 1.754-.002.001-1.339 1.333c-.316.315-.49.732-.49 1.178s.174.863.49 1.179c.325.323.753.485 1.18.485s.855-.162 1.18-.485l3.482-3.467.001-.002 1.01-1-.004-.004c.006-.006.015-.009.022-.015l5.166-5.658 3.471.494a.52.52 0 00.262-.033c.018-.006.033-.015.05-.023.019-.01.039-.015.058-.027l3.213-2.133c.012-.008.018-.021.029-.029.013-.01.029-.014.041-.026l1.271-1.191c.662-.62.753-1.635.212-2.362zM2.13 17.77a.714.714 0 01-.558.052.717.717 0 01-.213-1.26l1.314-.632.449 1.313-.992.527zm3.498-1.828l-1.548.8-.439-1.283 2.027-1.001-.04 1.484zm15.099-6.62a5.79 5.79 0 01-.599 2.559l-4.181-1.899a1.863 1.863 0 00-.788-1.388l1.464-4.86c2.378.756 4.105 2.974 4.105 5.588zm-11.789 0c0-3.235 2.644-5.867 5.894-5.867.253 0 .5.021.745.052l-1.432 4.754c-.019-.001-.037-.006-.057-.006-1.033 0-1.873.837-1.873 1.867s.84 1.867 1.873 1.867c.694 0 1.294-.383 1.618-.945l3.862 1.755a5.894 5.894 0 01-4.737 2.39c-3.25 0-5.894-2.632-5.894-5.867zm5.956.8c0 .441-.362.8-.806.8s-.806-.359-.806-.8c0-.441.362-.8.806-.8s.806.359.806.8zM2.465 25.146a.608.608 0 01-.854.001.592.592 0 010-.844l.962-.959.851.848-.959.955zm3.214 3.734a.608.608 0 01-.855.001.592.592 0 010-.844l.963-.959.852.848-.96.955zm3.481-3.469l-.002.001-1.765 1.76-.852-.848 1.763-1.755.002-.001c.04-.04.065-.088.09-.135.007-.014.02-.026.026-.04.017-.041.019-.085.026-.129.003-.025.014-.047.014-.073 0-.036-.013-.07-.02-.106-.006-.032-.006-.065-.019-.095a.55.55 0 00-.091-.138c-.01-.012-.014-.027-.025-.038h-.001l-.001-.002-1.607-1.6c-.017-.017-.039-.024-.058-.038a.507.507 0 00-.087-.058.515.515 0 00-.093-.033.507.507 0 00-.103-.02.5.5 0 00-.095.005.53.53 0 00-.104.02.477.477 0 00-.094.045c-.02.011-.042.015-.061.029L4.23 23.486l-.901-.897 2.399-2.386 4.361 4.289-.928.919zm6.819-7.017c-.015-.002-.03.004-.045.003a.556.556 0 00-.3.075.492.492 0 00-.083.061c-.013.011-.028.017-.04.029l-4.698 5.146-4.328-4.257 2.833-2.818a.534.534 0 00-.379-.911v-.001l-2.219.013.028-1.607 3.104.027a6.947 6.947 0 004.981 2.101c.437 0 .864-.045 1.279-.123.04.032.079.065.13.085l2.41.96.152.758.178.885-3.003-.427zm4.041.178l-.313-1.558 1.446-1.08.947 1.257-2.08 1.381zm3.754-2.831l-.838.785-.931-1.236.831-.637a.735.735 0 01.543-.143.718.718 0 01.48.284.713.713 0 01-.085.947z"/>
      <path fill="var(--color2, #212121)" d="M13.602 18.544l-2.143-2.133a.534.534 0 00-.753 0l-2.142 2.133a.537.537 0 000 .756l2.142 2.133a.536.536 0 00.753 0l2.143-2.133a.535.535 0 000-.756zm-2.519 1.759l-1.387-1.381 1.387-1.381 1.387 1.381-1.387 1.381zM17.164 5.071l-.258 1.036c.071.018 1.738.452 1.738 2.149h1.067c0-2.017-1.666-2.965-2.547-3.185zM19.711 9.322h-1.067v1.067h1.067V9.322z"/>
    </symbol>
    <symbol id="icon-features-clock" viewBox="0 0 32 32">
      <path fill="var(--color2, #212121)" d="M31.297 15.301C31.295 6.849 24.442-.002 15.989 0S.686 6.855.688 15.308a15.304 15.304 0 0010.649 14.576.662.662 0 00.529-.065.637.637 0 00.283-.356l3.865-12.25a1.912 1.912 0 10-.84-3.635l-5.106-5.107a.637.637 0 00-.902.902l5.103 5.109a1.876 1.876 0 00.536 2.309l-3.683 11.673C3.844 25.783.118 17.71 2.799 10.432S13.553-.572 20.831 2.109s11.004 10.754 8.323 18.032a14.042 14.042 0 01-7.462 7.973l-.398-1.874a.638.638 0 00-1.048-.344l-3.837 3.426a.637.637 0 00.231 1.084l4.899 1.563a.638.638 0 00.819-.74l-.391-1.839a15.255 15.255 0 009.329-14.089zm-15.305-.637a.638.638 0 110 1.277.638.638 0 010-1.277zm2.101 14.864l2.184-1.948.603 2.84-2.787-.892z"/>
      <path fill="var(--color3, #2196f3)" d="M15.354 3.185V4.46a.638.638 0 101.276 0V3.185a.638.638 0 00-1.276 0zM3.876 14.664a.638.638 0 000 1.276h1.275a.638.638 0 100-1.276H3.876zM28.108 15.939a.638.638 0 100-1.276h-1.275a.638.638 0 000 1.276h1.275z"/>
    </symbol>
    <symbol id="icon-features-diagram" viewBox="0 0 32 32">
      <path fill="var(--color3, #2196f3)" d="M14.926 14.965h1.066v4.798h-1.066v-4.797zM19.19 17.097h1.066v2.665H19.19v-2.665zM10.661 18.696h1.066v1.066h-1.066v-1.066zM7.463 18.163h1.066v1.599H7.463v-1.599z"/>
      <path fill="var(--color2, #212121)" d="M1.599 28.291h25.587a1.6 1.6 0 001.599-1.599V24.56a1.6 1.6 0 00-1.599-1.599h-.533V9.668L29.681 6.8a1.608 1.608 0 10-.746-.763L26.654 8.2V6.97a1.6 1.6 0 00-1.599-1.599H3.733A1.6 1.6 0 002.134 6.97v15.992h-.533a1.6 1.6 0 00-1.599 1.599v2.132a1.6 1.6 0 001.599 1.599zM30.384 4.837a.533.533 0 110 1.067.533.533 0 010-1.067zM3.198 6.969c0-.294.239-.533.533-.533h21.322c.294 0 .533.239.533.533v2.239l-1.066 1.013V8.035a.533.533 0 00-.533-.533H4.797a.533.533 0 00-.533.533v13.326c0 .294.239.533.533.533h19.19a.533.533 0 00.533-.533v-9.674l1.066-1.01v12.284H3.198V6.969zm4.798 6.93a1.598 1.598 0 101.107 2.749l1.853.93a.532.532 0 00.636-.123l3.939-4.431 3.872 2.901a.533.533 0 00.686-.039l3.365-3.188v8.131H5.33V8.569h18.124v2.66l-3.771 3.572-3.904-2.927a.533.533 0 00-.718.072l-3.993 4.493-1.493-.746c.011-.064.018-.129.02-.193a1.6 1.6 0 00-1.599-1.599zm.533 1.599a.533.533 0 11-1.067 0 .533.533 0 011.067 0zm3.198 8.528h5.331v.533a.533.533 0 01-.533.533h-4.264a.533.533 0 01-.533-.533v-.533zm-10.661.534c0-.294.239-.533.533-.533h9.062v.533a1.6 1.6 0 001.599 1.599h4.264a1.6 1.6 0 001.599-1.599v-.533h9.062c.294 0 .533.239.533.533v2.132a.533.533 0 01-.533.533H1.598a.533.533 0 01-.533-.533V24.56z"/>
    </symbol>
    <symbol id="icon-header-envelope" viewBox="0 0 32 32">
      <path fill="var(--color3, #2196f3)" d="M29 4H3C1.346 4 0 5.256 0 6.801v16.803c0 1.544 1.346 2.801 3 2.801h26c1.654 0 3-1.256 3-2.801V6.801C32 5.257 30.654 4 29 4zm0 1.867c.136 0 .265.026.383.072L16 16.767 2.617 5.939c.118-.046.247-.072.383-.072h26zm0 18.67H3c-.552 0-1-.418-1-.934V7.911l13.345 10.796c.188.152.422.228.655.228s.467-.076.655-.228L30 7.911v15.692c0 .515-.448.934-1 .934z"/>
    </symbol>
    <symbol id="icon-header-phone" viewBox="0 0 32 32">
      <path fill="var(--color4, #757575)" d="M23.467 0H8.534c-1.765 0-3.2 1.34-3.2 2.987v25.889c0 1.647 1.435 2.987 3.2 2.987h14.933c1.765 0 3.2-1.34 3.2-2.987V2.987c0-1.647-1.435-2.987-3.2-2.987zM8.533 1.992h14.933c.589 0 1.067.446 1.067.996v20.91H7.466V2.988c0-.549.478-.996 1.067-.996zm14.934 27.88H8.534c-.589 0-1.067-.446-1.067-.996v-2.987h17.067v2.987c0 .549-.478.996-1.067.996z"/>
    </symbol>
    <symbol id="icon-soc-fb" viewBox="0 0 32 32">
      <path d="M18.422 11.142h1.328V8.829a17.317 17.317 0 00-1.935-.102c-1.915 0-3.226 1.204-3.226 3.418v2.037h-2.113v2.585h2.113v6.505h2.59v-6.505h2.027l.322-2.585h-2.35v-1.781c.001-.747.202-1.259 1.243-1.259z"/>
    </symbol>
    <symbol id="icon-soc-ig" viewBox="0 0 32 32">
      <path d="M23.258 13.004c-.034-.773-.159-1.304-.338-1.765a3.557 3.557 0 00-.841-1.29 3.589 3.589 0 00-1.287-.838c-.463-.179-.992-.304-1.764-.338-.779-.037-1.026-.046-3.001-.046s-2.222.009-2.998.043c-.773.034-1.304.159-1.764.338a3.557 3.557 0 00-1.29.841 3.589 3.589 0 00-.838 1.287c-.179.463-.304.992-.338 1.764-.037.779-.045 1.026-.045 3.001s.008 2.222.043 2.998c.034.773.159 1.304.338 1.765.185.489.472.926.841 1.29.364.369.804.656 1.287.838.463.179.992.304 1.765.338.776.034 1.023.043 2.998.043s2.222-.008 2.998-.043c.773-.034 1.304-.159 1.764-.338a3.72 3.72 0 002.128-2.128c.179-.463.304-.992.338-1.765.034-.776.043-1.023.043-2.998s-.003-2.222-.037-2.998zm-1.309 5.938c-.031.71-.151 1.094-.25 1.35a2.409 2.409 0 01-1.381 1.381c-.256.099-.642.219-1.35.25-.767.034-.997.043-2.938.043s-2.174-.008-2.938-.043c-.71-.031-1.094-.15-1.35-.25a2.228 2.228 0 01-.835-.543 2.264 2.264 0 01-.543-.835c-.099-.256-.219-.642-.25-1.35-.034-.767-.043-.997-.043-2.938s.008-2.174.043-2.938c.031-.71.151-1.094.25-1.35.117-.315.301-.602.546-.835.236-.242.52-.426.835-.543.256-.099.642-.219 1.35-.25.767-.034.997-.043 2.938-.043 1.944 0 2.174.008 2.938.043.71.031 1.094.151 1.35.25.315.116.602.301.835.543.241.236.426.52.543.835.099.256.219.642.25 1.35.034.767.043.997.043
    2.938s-.009 2.168-.043 2.935z"/>
      <path d="M16.027 12.265a3.737 3.737 0 10.003 7.475 3.737 3.737 0 00-.003-7.475zm0 6.16a2.424 2.424 0 110-4.849 2.424 2.424 0 010 4.849zM20.784 12.117a.872.872 0 11-1.744 0 .872.872 0 011.744 0z"/>
    </symbol>
    <symbol id="icon-soc-in" viewBox="0 0 32 32">
      <path d="M23.269 23.273v-.001h.004v-5.335c0-2.61-.562-4.62-3.613-4.62-1.467 0-2.451.805-2.853 1.568h-.042v-1.324h-2.893v9.711h3.012v-4.809c0-1.266.24-2.49 1.808-2.49 1.545 0 1.568 1.445 1.568 2.572v4.728h3.009zM8.967 13.562h3.016v9.711H8.967v-9.711zM10.474 8.727c-.964 0-1.747.782-1.747 1.747s.782 1.763 1.747 1.763c.964 0 1.747-.799 1.747-1.763s-.783-1.747-1.747-1.747z"/>
    </symbol>
    <symbol id="icon-soc-tw" viewBox="0 0 32 32">
      <path d="M23.273 11.49a6.248 6.248 0 01-1.718.471 2.967 2.967 0 001.312-1.648 5.963 5.963 0 01-1.891.722 2.981 2.981 0 00-5.158 2.039c0 .236.02.464.069.68a8.439 8.439 0 01-6.146-3.119 2.985 2.985 0 00.917 3.985 2.943 2.943 0 01-1.347-.367v.033a2.996 2.996 0 002.389 2.93 2.992 2.992 0 01-.782.098 2.64 2.64 0 01-.565-.051 3.01 3.01 0 002.786 2.077 5.991 5.991 0 01-3.697 1.272 5.59 5.59 0 01-.714-.041 8.393 8.393 0 004.575 1.338c5.487 0 8.487-4.545 8.487-8.485 0-.132-.005-.259-.011-.385a5.95 5.95 0 001.495-1.548z"/>
    </symbol>
    <symbol id="icon-send" viewBox="0 0 24 24">
      <path d="M24 0L0 13.5L7.66994 16.3407L19.5 5.25002L10.5017 17.3896L10.509 17.3923L10.5 17.3896V24.0001L14.8013 18.982L20.2501 21.0001L24 0Z"/>
    </symbol>
  </defs>
</svg>